<svg width="36" height="36" viewBox="0 0 36 36" fill="none" xmlns="http://www.w3.org/2000/svg">
<g id="Image">
<rect width="36" height="36" stroke="#BDC1CA"/>
<g id="Group">
<g id="Group_2">
<g id="Group_3">
<g id="Group_4">
<g id="Group_5">
<path id="Vector" fill-rule="evenodd" clip-rule="evenodd" d="M17.9999 5.72012C11.6597 5.72012 6.51992 10.8599 6.51992 17.2001H2.41992C2.41992 8.59553 9.39533 1.62012 17.9999 1.62012C26.6045 1.62012 33.5799 8.59553 33.5799 17.2001H29.4799C29.4799 10.8599 24.3402 5.72012 17.9999 5.72012Z" fill="#A17561"/>
</g>
<g id="Group_6">
<path id="Vector_2" d="M11.2563 21.9901C10.5839 20.5548 9.355 19.2102 7.76994 19.2102H2.43994C2.43994 27.3619 9.0482 33.9702 17.1999 33.9702V28.6402C17.1999 27.0551 15.8554 25.8263 14.4201 25.1538C13.0308 24.5029 11.9072 23.3793 11.2563 21.9901Z" fill="#71BBB2"/>
</g>
<g id="Group_7">
<path id="Vector_3" d="M24.7434 21.9901C25.4159 20.5548 26.6447 19.2102 28.2298 19.2102H33.5598C33.5598 27.3619 26.9515 33.9702 18.7998 33.9702V28.6402C18.7998 27.0551 20.1444 25.8263 21.5797 25.1538C22.9689 24.5029 24.0925 23.3793 24.7434 21.9901Z" fill="#A17561"/>
</g>
<g id="Group_8">
<path id="Vector_4" d="M17.9999 21.2801C20.2643 21.2801 22.0999 19.4444 22.0999 17.1801C22.0999 14.9157 20.2643 13.0801 17.9999 13.0801C15.7355 13.0801 13.8999 14.9157 13.8999 17.1801C13.8999 19.4444 15.7355 21.2801 17.9999 21.2801Z" fill="#A17561"/>
</g>
</g>
</g>
</g>
</g>
</g>
</svg>
